<?xml version="1.0" encoding="utf-8"?>
<!-- Generator: Adobe Illustrator 25.1.0, SVG Export Plug-In . SVG Version: 6.00 Build 0)  -->
<svg version="1.1" id="Layer_1" xmlns="http://www.w3.org/2000/svg" xmlns:xlink="http://www.w3.org/1999/xlink" x="0px" y="0px"
	 viewBox="0 0 700 700" style="enable-background:new 0 0 700 700;" xml:space="preserve">
<style type="text/css">
	.st0{fill:#FF5B4F;}
	.st1{fill:#FFFFFF;}
</style>
<circle cx="350" cy="350" r="350"/>
<g>
	<path class="st0" d="M501,261.8c-19.7,0-35.6,15.9-35.6,35.6c0,18.4,14,33.6,31.9,35.4V316h0.9l11,16c15.7-3.7,27.3-17.8,27.3-34.6
		C536.6,277.7,520.7,261.8,501,261.8z"/>
	<g>
		<path class="st1" d="M124.9,297.6v-16.8h88.2v16.8H179v93.8h-19.9v-93.8H124.9z"/>
		<path class="st1" d="M252.2,280.8v110.5h-20V280.8H252.2z"/>
		<path class="st1" d="M271.3,297.6v-16.8h88.2v16.8h-34.2v93.8h-19.9v-93.8H271.3z"/>
		<path class="st1" d="M379.3,391.3H358l38.9-110.5h24.7l39,110.5h-21.4l-29.5-87.9h-0.9L379.3,391.3z M380,348h58.3v16.1H380V348z"
			/>
		<path class="st1" d="M568.1,280.8v110.5h-17.8L498.2,316h-0.9v75.3h-20V280.8h17.9l52,75.4h1v-75.4H568.1z"/>
	</g>
</g>
</svg>
